/vscmnt/brussel_pixiu_data/_data_brussel/112/vsc11236/PredSimResults/SUBJ10mtu3D/worker4.mot
version=1
nRows=8
nColumns=50
inDegrees=yes
endheader
                time	         pelvis_tilt	         pelvis_list	     pelvis_rotation	           pelvis_tx	           pelvis_ty	           pelvis_tz	       hip_flexion_r	     hip_adduction_r	      hip_rotation_r	        knee_angle_r	       ankle_angle_r	         mtp_angle_r	       hip_flexion_l	     hip_adduction_l	      hip_rotation_l	        knee_angle_l	       ankle_angle_l	         mtp_angle_l	    lumbar_extension	      lumbar_bending	     lumbar_rotation	 ercspn_r/activation	 intobl_r/activation	 extobl_r/activation	    abd_r/activation	    add_r/activation	hamstrings_r/activation	bifemsh_r/activation	glut_max_r/activation	iliopsoas_r/activation	rect_fem_r/activation	  vasti_r/activation	gastroc_r/activation	 soleus_r/activation	tib_ant_r/activation	 ercspn_l/activation	 intobl_l/activation	 extobl_l/activation	    abd_l/activation	    add_l/activation	hamstrings_l/activation	bifemsh_l/activation	glut_max_l/activation	iliopsoas_l/activation	rect_fem_l/activation	  vasti_l/activation	gastroc_l/activation	 soleus_l/activation	tib_ant_l/activation	
          1.66839588	         -4.23508982	          0.98818811	         -7.38394929	          2.01875902	          0.82237805	          0.01236002	        -16.54018379	         -0.95054965	         -0.02276293	         -5.12461455	          8.09775742	         26.24431747	         31.18936585	         -1.70875282	         -6.06419450	         -6.87483503	          3.37143291	          0.26610230	         -6.69810495	          0.73340790	          6.29398370	          0.06550693	          0.00999999	          0.00999999	          0.05417339	          0.01000000	          0.01430177	          0.23059203	          0.01316895	          0.38014778	          0.01000001	          0.00999999	          0.31434687	          0.24990010	          0.02542709	          0.12218403	          0.18432703	          0.01000000	          0.01000000	          0.11829984	          0.12582184	          0.25476874	          0.02669410	          0.10736882	          0.01000001	          0.01000000	          0.01000010	          0.00999999	          0.28179481	
          1.67951852	         -4.27429033	          0.95104954	         -7.49317573	          2.03431224	          0.82098838	          0.01223305	        -16.65029353	         -1.05422322	         -0.31634328	         -6.77573594	          7.40809609	         27.92118812	         31.10844703	         -1.59731094	         -5.82129285	         -8.43829905	          3.10570076	          0.26352366	         -6.51400841	          0.30677711	          6.59263138	          0.10503176	          0.00999999	          0.01000000	          0.04570139	          0.01000013	          0.01393198	          0.19453049	          0.01185376	          0.32069771	          0.01000001	          0.01000000	          0.28036518	          0.24034654	          0.02145063	          0.10307608	          0.15550073	          0.01000000	          0.00999999	          0.16528664	          0.10768161	          0.21492636	          0.06342236	          0.09057776	          0.01000000	          0.00999999	          0.01665600	          0.01185377	          0.30479192	
          1.69064116	         -4.30342019	          0.92660769	         -7.56153532	          2.05017891	          0.81979477	          0.01202795	        -16.65270836	         -1.17800630	         -0.63871660	         -8.65469392	          6.58376943	         29.54662934	         30.85653764	         -1.49551110	         -5.51524129	         -9.88076920	          2.70890975	          0.25443195	         -6.30693614	         -0.14235287	          6.86698823	          0.11743109	          0.00999999	          0.00999999	          0.03855430	          0.01000001	          0.01175345	          0.16410850	          0.01000000	          0.27054483	          0.01000001	          0.00999999	          0.23651978	          0.22522787	          0.01809604	          0.09441446	          0.13118247	          0.01000000	          0.03414739	          0.13943801	          0.09351820	          0.18131473	          0.09840031	          0.07641259	          0.00999999	          0.00999999	          0.01405122	          0.01000000	          0.38998833	
          1.70176380	         -4.32399497	          0.90106616	         -7.58302527	          2.06615392	          0.81892146	          0.01170046	        -16.47953953	         -1.30812362	         -0.99274733	        -10.84945799	          5.62119077	         31.03967267	         30.52300933	         -1.38928310	         -5.28770988	        -11.16261233	          2.18621300	          0.24191713	         -6.10169346	         -0.58923807	          7.11018738	          0.14601578	          0.00999999	          0.00999999	          0.03252492	          0.01000000	          0.01093941	          0.13844410	          0.01000000	          0.22823521	          0.01000001	          0.00999999	          0.19953121	          0.20829043	          0.01526606	          0.11150152	          0.11066727	          0.01000000	          0.08571435	          0.17889543	          0.07889319	          0.15295951	          0.11651790	          0.06446268	          0.01000000	          0.00999999	          0.01185380	          0.00999999	          0.44191968	
          1.71288644	         -4.33516717	          0.87282789	         -7.56170316	          2.08208988	          0.81847065	          0.01126301	        -16.08187935	         -1.44522989	         -1.38258396	        -13.41957589	          4.52753550	         32.26840313	         30.19589559	         -1.28052457	         -5.13742020	        -12.47640264	          1.74080849	          0.22711557	         -5.91090449	         -1.03084918	          7.31966518	          0.17660500	          0.00999999	          0.00999999	          0.02743845	          0.01793100	          0.02008088	          0.11679328	          0.01000000	          0.19254224	          0.01000000	          0.00999999	          0.16832717	          0.18493486	          0.01287865	          0.11568970	          0.09336038	          0.01000000	          0.12198284	          0.22856235	          0.06838958	          0.12903867	          0.12523592	          0.05438157	          0.01000000	          0.01095853	          0.01000002	          0.01000000	          0.46148504	
          1.72400908	         -4.33710040	          0.84469318	         -7.50323434	          2.09788854	          0.81851250	          0.01072945	        -15.42148596	         -1.59645034	         -1.81637550	        -16.40721210	          3.32280370	         33.05391679	         29.91095545	         -1.16946588	         -5.04335542	        -13.89137151	          1.47958189	          0.21200476	         -5.73890259	         -1.46748202	          7.49696765	          0.19765330	          0.00999999	          0.00999999	          0.02314744	          0.08656916	          0.02091534	          0.09852836	          0.00999999	          0.16243119	          0.01000000	          0.00999999	          0.14200303	          0.15601350	          0.01086460	          0.11443554	          0.07876005	          0.01000000	          0.14369989	          0.25788878	          0.06449344	          0.10885873	          0.12523301	          0.04587701	          0.01000000	          0.04562587	          0.01000000	          0.00999999	          0.46797056	
          1.73513172	         -4.33171273	          0.81189924	         -7.40826215	          2.11347876	          0.81912727	          0.01012397	        -14.46225953	         -1.76117989	         -2.31761208	        -19.85105600	          2.02111842	         33.18933259	         29.60912736	         -1.05547395	         -4.98328803	        -15.29196652	          1.43578192	          0.19623111	         -5.58848496	         -1.89294246	          7.64070366	          0.20645842	          0.00999999	          0.00999999	          0.01952749	          0.15163607	          0.02235024	          0.08311983	          0.00999999	          0.13702910	          0.01000000	          0.00999999	          0.11979564	          0.13161506	          0.00999999	          0.10944657	          0.06644302	          0.01000000	          0.15429304	          0.27489955	          0.06377696	          0.09183467	          0.11782933	          0.03870245	          0.01000000	          0.07624538	          0.01000000	          0.00999999	          0.44998225	
          1.74625436	         -4.32124781	          0.77001579	         -7.27675004	          2.12881617	          0.82033663	          0.00947168	        -13.18719726	         -1.94469308	         -2.88790595	        -23.73098962	          0.51472934	         32.65921631	         29.22168154	         -0.93494344	         -4.92808214	        -16.55447471	          1.64115382	          0.18698233	         -5.46127127	         -2.30291274	          7.74879943	          0.20596958	          0.00999999	          0.00999999	          0.01647365	          0.21347735	          0.02595138	          0.07012099	          0.00999999	          0.11559957	          0.01000000	          0.00999999	          0.10106119	          0.11103220	          0.00999999	          0.10052358	          0.05605221	          0.01000000	          0.15696131	          0.27833172	          0.06498044	          0.07747295	          0.10757223	          0.03264990	          0.00999999	          0.09887143	          0.01000000	          0.00999999	          0.41145669	
